<svg width="285" height="89" viewBox="0 0 285 89" fill="none" xmlns="http://www.w3.org/2000/svg">
<path d="M202.477 65.77L160.136 2.28712L117.795 65.77H141.74L145.049 60.2896H175.126L178.63 65.77H202.477ZM153.871 44.697L160.15 34.2461L166.401 44.6477L153.871 44.697Z" fill="#003366"/>
<path d="M247.943 34.8056L270.398 2.18414H247.647L224.965 34.8056L249.562 65.7707H272.54L247.943 34.8056Z" fill="#C42C34"/>
<path d="M67.734 2.22798H80.5991V14.8086C78.9374 12.2353 76.899 9.81136 74.483 7.53754C72.3582 5.48127 70.1084 3.71178 67.734 2.22798Z" fill="#C42C34"/>
<path d="M220.187 34.8056L242.869 2.18414H219.781L206.592 23.7037V2.18414H185.957V33.6126L206.592 65.3221V51.1602L217.01 65.7707H244.784L220.187 34.8056Z" fill="#003366"/>
<path d="M84.3994 22.0165H99.0257L72.5503 65.7707H113.397L126.501 46.0766H108.37L134.845 2.23006H84.3794L84.3994 22.0165Z" fill="#003366"/>
<path d="M61.7473 34C61.7473 35.9975 61.3906 37.8399 60.6442 39.5122C59.8981 41.1997 58.7786 42.7323 57.2701 44.1258C54.3502 46.9126 50.8458 48.3061 46.7578 48.3061C44.6651 48.3061 42.7346 47.9657 40.9821 47.2689C39.2144 46.5723 37.6082 45.5196 36.1485 44.1258C34.6881 42.7323 33.585 41.1997 32.855 39.5122C32.125 37.8399 31.768 35.9975 31.768 34C31.768 30.0985 33.2281 26.7544 36.1485 23.9675C37.6082 22.5741 39.2144 21.5209 40.9821 20.8243C42.7346 20.1276 44.6651 19.7869 46.7578 19.7869C50.8458 19.7869 54.3502 21.1807 57.2701 23.9675C58.7786 25.361 59.8981 26.8936 60.6442 28.5657C61.3906 30.2377 61.7473 32.0497 61.7473 34ZM82.3828 34C82.3828 24.6177 78.8786 16.6291 71.8705 10.0328C64.9593 3.34477 56.589 0 46.7578 0C41.842 0 37.284 0.836283 33.0986 2.50848C28.8968 4.18068 25.052 6.6888 21.5478 10.0328C18.092 13.3309 15.4969 16.9694 13.7448 20.9639C12.0087 24.9583 11.1328 29.3088 11.1328 34C11.1328 38.6916 12.0087 43.0421 13.7448 47.0369C15.4969 51.0465 18.092 54.7158 21.5478 58.0601C25.052 61.3579 28.8968 63.8354 33.0986 65.5076C37.284 67.164 41.842 68 46.7578 68C51.6732 68 56.2321 67.164 60.4171 65.5076C64.6024 63.8354 68.4147 61.3579 71.8705 58.0601C75.3747 54.7158 78.0023 51.0465 79.7548 47.0369C81.5067 43.0421 82.3828 38.6916 82.3828 34Z" fill="#003366"/>
<path d="M15.3672 88.0604C14.4113 88.071 13.5814 87.9062 12.8776 87.566C12.1737 87.2217 11.628 86.7117 11.2405 86.036C10.853 85.3562 10.6538 84.5284 10.643 83.5524C10.6322 82.5765 10.813 81.7464 11.1855 81.0623C11.5579 80.3741 12.0921 79.8522 12.7882 79.4964C13.4843 79.1367 14.3103 78.9516 15.2662 78.941C16.2222 78.9304 17.0521 79.0972 17.7559 79.4415C18.4598 79.7857 19.0055 80.2977 19.393 80.9774C19.7806 81.6572 19.9797 82.481 19.9904 83.449C20.0011 84.4169 19.8203 85.245 19.4479 85.9331C19.0755 86.6213 18.5393 87.1453 17.8392 87.505C17.1431 87.8648 16.3191 88.0499 15.3672 88.0604ZM15.3461 86.1585C16.0621 86.1506 16.6077 85.9286 16.9829 85.4924C17.362 85.0522 17.5467 84.3941 17.537 83.5181C17.5269 82.6062 17.3275 81.9303 16.9386 81.4906C16.5537 81.0509 16.0032 80.8349 15.2873 80.8429C14.5753 80.8507 14.0298 81.0728 13.6506 81.509C13.2713 81.9412 13.0866 82.5993 13.0964 83.4833C13.1066 84.4072 13.3022 85.0871 13.683 85.5229C14.0678 85.9547 14.6222 86.1666 15.3461 86.1585ZM22.8473 80.5012L21.0036 78.1814L23.5354 78.1534L25.0432 80.4768L22.8473 80.5012ZM31.0022 85.8352L35.2199 85.7885L35.2413 87.7204L27.9158 87.8015L27.9014 86.4996L31.9966 80.8079L27.9049 80.8532L27.8835 78.9213L35.083 78.8416L35.0975 80.1435L31.0022 85.8352ZM42.1165 83.066C42.6176 83.1685 43.0161 83.3901 43.3119 83.7308C43.6077 84.0676 43.7587 84.5199 43.765 85.0879C43.7713 85.6639 43.6247 86.1495 43.3251 86.5449C43.0254 86.9362 42.5287 87.2397 41.8351 87.4554C41.1414 87.6671 40.2205 87.7793 39.0726 87.792C38.6766 87.7964 38.2205 87.7834 37.7041 87.7531C37.1877 87.7229 36.7272 87.682 36.3227 87.6304L36.2279 79.075C36.6867 78.9619 37.2017 78.8702 37.773 78.7998C38.3442 78.7255 38.8838 78.6855 39.3918 78.6799C40.7997 78.6643 41.8299 78.8629 42.4825 79.2757C43.1392 79.6885 43.4721 80.3168 43.4815 81.1608C43.4866 81.6208 43.365 82.0221 43.1168 82.3649C42.8725 82.7036 42.5391 82.9373 42.1165 83.066ZM39.7104 80.3625C39.3304 80.3667 38.9569 80.4068 38.5897 80.4829L38.6096 82.2828L39.8275 82.2693C40.3355 82.2637 40.6986 82.1837 40.9169 82.0292C41.1352 81.8708 41.2425 81.6296 41.2389 81.3056C41.2365 81.0816 41.1845 80.9002 41.0829 80.7613C40.9854 80.6224 40.8262 80.5201 40.6055 80.4546C40.3847 80.389 40.0864 80.3583 39.7104 80.3625ZM39.7138 86.0928C40.1898 86.0875 40.5634 86.0454 40.8345 85.9664C41.1097 85.8873 41.3024 85.7712 41.4127 85.618C41.523 85.4647 41.5768 85.2661 41.5741 85.0221C41.5714 84.7742 41.5191 84.5747 41.4175 84.4238C41.3158 84.273 41.1526 84.1628 40.9278 84.0932C40.707 84.0237 40.4126 83.9909 40.0446 83.995L38.6287 84.0107L38.6514 86.0566C38.9517 86.0852 39.3059 86.0973 39.7138 86.0928ZM47.1248 85.7407L51.7325 85.6897L51.753 87.5376L44.7694 87.6149L44.6711 78.7355L51.5947 78.6588L51.6151 80.5067L47.0674 80.5571L47.0848 82.129L51.0086 82.0855L51.029 83.9334L47.1053 83.9768L47.1248 85.7407ZM58.4363 87.4636L56.0157 83.9922L55.2778 84.0004L55.3165 87.4982L52.9106 87.5248L52.8123 78.6453L55.2182 78.6187L55.2548 81.9245L55.9927 81.9163L58.152 78.5862L60.6778 78.5583L57.8815 82.8795L61.0461 87.4347L58.4363 87.4636ZM61.4268 87.4305L61.3285 78.5511L63.7344 78.5244L63.8327 87.4039L61.4268 87.4305ZM67.8544 87.4794C66.8705 87.4903 65.945 87.3665 65.0781 87.1081L65.057 85.2002C65.4464 85.3239 65.8975 85.4209 66.4103 85.4912C66.9271 85.5615 67.4015 85.5943 67.8335 85.5895C68.3855 85.5834 68.7747 85.5111 69.0012 85.3726C69.2316 85.234 69.3454 85.0327 69.3425 84.7687C69.3409 84.6248 69.3056 84.5051 69.2365 84.4099C69.1715 84.3146 69.0545 84.2319 68.8858 84.1618C68.717 84.0916 68.4782 84.0243 68.1695 83.9597L67.3936 83.7943C66.5035 83.6081 65.8461 83.3054 65.4214 82.886C64.9967 82.4627 64.7805 81.9011 64.7727 81.2011C64.7628 80.3012 65.0971 79.6054 65.7757 79.1139C66.4582 78.6183 67.4755 78.363 68.8274 78.3481C69.6873 78.3385 70.4623 78.422 71.1523 78.5983L71.1734 80.5062C70.8764 80.4175 70.5297 80.3493 70.1331 80.3017C69.7405 80.2541 69.3483 80.2324 68.9563 80.2367C68.2963 80.244 67.8292 80.3212 67.5548 80.4683C67.2804 80.6113 67.1446 80.8108 67.1474 81.0668C67.1489 81.2028 67.1781 81.3145 67.2351 81.4019C67.2921 81.4892 67.3909 81.5662 67.5317 81.6326C67.6764 81.699 67.8791 81.7608 68.1398 81.8179L68.9156 81.9833C69.8859 82.1846 70.5914 82.4968 71.0321 82.9199C71.4768 83.339 71.703 83.8986 71.7108 84.5985C71.7172 85.1825 71.5668 85.6902 71.2596 86.1216C70.9563 86.549 70.5139 86.8799 69.9325 87.1144C69.3511 87.3488 68.6584 87.4705 67.8544 87.4794ZM74.5274 87.2855L74.4505 80.3379L71.5347 80.3702L71.5133 78.4383L79.7508 78.3471L79.7722 80.279L76.8563 80.3113L76.9332 87.2589L74.5274 87.2855ZM84.4548 87.2956C83.4989 87.3062 82.669 87.1414 81.9652 86.8011C81.2614 86.4569 80.7157 85.9469 80.3282 85.2712C79.9406 84.5914 79.7414 83.7636 79.7306 82.7876C79.7198 81.8117 79.9007 80.9816 80.2731 80.2975C80.6455 79.6093 81.1798 79.0874 81.8759 78.7316C82.5719 78.3719 83.3979 78.1868 84.3539 78.1762C85.3098 78.1656 86.1397 78.3324 86.8436 78.6766C87.5474 79.0209 88.0931 79.5329 88.4807 80.2126C88.8682 80.8924 89.0674 81.7162 89.0781 82.6842C89.0888 83.6521 88.9079 84.4801 88.5355 85.1683C88.1631 85.8565 87.6269 86.3804 86.9268 86.7402C86.2308 87.0999 85.4068 87.2851 84.4548 87.2956ZM84.4338 85.3937C85.1497 85.3858 85.6953 85.1638 86.0705 84.7276C86.4497 84.2873 86.6344 83.6293 86.6247 82.7533C86.6146 81.8414 86.4151 81.1655 86.0262 80.7258C85.6413 80.2861 85.0909 80.0701 84.3749 80.0781C83.663 80.0859 83.1174 80.308 82.7382 80.7442C82.359 81.1764 82.1742 81.8345 82.184 82.7185C82.1943 83.6424 82.3898 84.3223 82.7706 84.7581C83.1554 85.1899 83.7098 85.4017 84.4338 85.3937ZM96.3998 78.1628L98.6617 78.1378L98.76 87.0172L96.3542 87.0439L92.5023 81.6562L92.5624 87.0859L90.3005 87.1109L90.2022 78.2314L92.6081 78.2048L96.46 83.5925L96.3998 78.1628ZM109.738 86.8957L109.024 84.7315L105.641 84.7689L104.981 86.9484L102.647 86.9742L105.524 78.0618L109.022 78.0231L112.096 86.8696L109.738 86.8957ZM106.208 82.9145L108.422 82.89L107.273 79.4045L106.208 82.9145ZM118.375 86.8001L115.954 83.3287L115.216 83.3369L115.255 86.8346L112.849 86.8613L112.751 77.9818L115.157 77.9552L115.193 81.261L115.931 81.2528L118.091 77.9227L120.617 77.8947L117.82 82.216L120.985 86.7712L118.375 86.8001ZM126.891 86.7058L124.471 83.2344L123.733 83.2426L123.771 86.7404L121.365 86.767L121.267 77.8875L123.673 77.8609L123.71 81.1667L124.448 81.1585L126.607 77.8284L129.133 77.8005L126.336 82.1217L129.501 86.6769L126.891 86.7058ZM135.287 86.6129L133.063 83.5473C132.967 83.5484 132.857 83.5476 132.733 83.545C132.609 83.5423 132.511 83.5394 132.439 83.5362L132.205 83.5268L132.24 86.6466L129.882 86.6727L129.786 78.0393C130.241 77.9262 130.744 77.8346 131.295 77.7645C131.85 77.6904 132.378 77.6505 132.878 77.645C134.258 77.6297 135.294 77.8583 135.988 78.3306C136.685 78.7989 137.039 79.5351 137.05 80.539C137.057 81.155 136.915 81.6806 136.624 82.1158C136.336 82.551 135.918 82.8897 135.369 83.1318L137.909 86.5839L135.287 86.6129ZM132.186 81.7689C132.546 81.8049 132.874 81.8213 133.17 81.818C133.734 81.8118 134.149 81.7112 134.415 81.5162C134.685 81.3172 134.817 81.0017 134.812 80.5698C134.808 80.1378 134.668 79.8253 134.394 79.6323C134.12 79.4354 133.703 79.34 133.143 79.3462C132.815 79.3498 132.487 79.3834 132.16 79.4471L132.186 81.7689ZM140.988 84.7017L145.595 84.6507L145.616 86.4985L138.632 86.5759L138.534 77.6964L145.458 77.6198L145.478 79.4676L140.93 79.518L140.948 81.0899L144.871 81.0465L144.892 82.8943L140.968 82.9378L140.988 84.7017ZM149.516 86.5454C149.088 86.5501 148.63 86.5412 148.142 86.5186C147.658 86.4999 147.201 86.467 146.773 86.4197L146.678 77.8523C147.133 77.7432 147.65 77.6555 148.229 77.5891C148.812 77.5186 149.372 77.4804 149.908 77.4745C151.688 77.4548 153.03 77.8119 153.934 78.546C154.842 79.28 155.305 80.4149 155.322 81.9508C155.334 83.0108 155.129 83.8771 154.709 84.5498C154.288 85.2185 153.649 85.7156 152.793 86.0411C151.936 86.3626 150.844 86.5307 149.516 86.5454ZM150.143 84.6243C150.779 84.6173 151.296 84.5236 151.694 84.3431C152.096 84.1587 152.393 83.8734 152.585 83.4872C152.776 83.1011 152.869 82.594 152.862 81.9661C152.852 81.0501 152.618 80.3867 152.162 79.9757C151.705 79.5647 151.011 79.3644 150.079 79.3747C149.931 79.3763 149.767 79.3862 149.587 79.4042C149.411 79.4221 149.25 79.4459 149.102 79.4755L149.159 84.5992C149.407 84.6205 149.735 84.6288 150.143 84.6243ZM156.532 86.3777L156.433 77.4983L158.839 77.4716L158.938 86.3511L156.532 86.3777ZM162.616 86.3104L162.539 79.3628L159.623 79.3951L159.602 77.4632L167.839 77.372L167.861 79.3039L164.945 79.3361L165.022 86.2837L162.616 86.3104ZM173.919 86.1852L173.205 84.021L169.821 84.0585L169.161 86.2379L166.827 86.2637L169.705 77.3513L173.203 77.3126L176.277 86.1591L173.919 86.1852ZM170.389 82.2041L172.603 82.1796L171.454 78.6941L170.389 82.2041ZM178.09 86.1391L178.013 79.1915L175.097 79.2238L175.076 77.2919L183.313 77.2007L183.335 79.1326L180.419 79.1648L180.496 86.1124L178.09 86.1391ZM186.657 86.1642C185.673 86.1751 184.747 86.0514 183.88 85.7929L183.859 83.8851C184.249 84.0088 184.7 84.1058 185.212 84.1761C185.729 84.2464 186.204 84.2791 186.636 84.2743C187.188 84.2682 187.577 84.1959 187.803 84.0574C188.034 83.9188 188.148 83.7176 188.145 83.4536C188.143 83.3096 188.108 83.19 188.039 83.0947C187.974 82.9995 187.857 82.9167 187.688 82.8466C187.519 82.7765 187.28 82.7091 186.972 82.6445L186.196 82.4791C185.306 82.2929 184.648 81.9902 184.224 81.5709C183.799 81.1476 183.583 80.5859 183.575 79.886C183.565 78.986 183.899 78.2903 184.578 77.7987C185.26 77.3031 186.278 77.0479 187.629 77.0329C188.489 77.0234 189.264 77.1068 189.954 77.2832L189.976 79.1911C189.679 79.1023 189.332 79.0342 188.935 78.9866C188.543 78.9389 188.15 78.9173 187.758 78.9216C187.098 78.9289 186.631 79.0061 186.357 79.1531C186.082 79.2962 185.947 79.4957 185.949 79.7517C185.951 79.8877 185.98 79.9993 186.037 80.0867C186.094 80.1741 186.193 80.251 186.334 80.3174C186.479 80.3838 186.681 80.4456 186.942 80.5027L187.718 80.6681C188.688 80.8694 189.394 81.1816 189.834 81.6048C190.279 82.0239 190.505 82.5834 190.513 83.2834C190.519 83.8673 190.369 84.375 190.062 84.8065C189.758 85.2338 189.316 85.5648 188.735 85.7992C188.153 86.0337 187.46 86.1553 186.657 86.1642ZM191.555 85.99L191.456 77.1105L193.862 77.0839L193.96 85.9634L191.555 85.99ZM203.222 76.9803L200.022 82.2L200.063 85.8958L197.657 85.9224L197.616 82.2567L194.181 77.0804L196.725 77.0522L198.843 80.281L200.852 77.0065L203.222 76.9803ZM209.036 85.7965L208.322 83.6323L204.938 83.6697L204.278 85.8492L201.944 85.875L204.822 76.9626L208.319 76.9239L211.393 85.7704L209.036 85.7965ZM205.505 81.8153L207.719 81.7908L206.571 78.3053L205.505 81.8153ZM222.817 76.7634L225.739 76.731L225.837 85.6105L223.594 85.6353L223.529 79.7977L221.545 84.3559L219.577 84.3777L217.49 80.0626L217.552 85.7022L215.308 85.727L215.21 76.8476L218.138 76.8152L220.565 81.9846L222.817 76.7634ZM233.705 85.5234L232.991 83.3592L229.608 83.3966L228.948 85.5761L226.614 85.6019L229.491 76.6895L232.989 76.6508L236.063 85.4973L233.705 85.5234ZM230.175 81.5422L232.389 81.5177L231.24 78.0322L230.175 81.5422ZM242.222 85.4291L239.998 82.3635C239.902 82.3646 239.792 82.3638 239.668 82.3612C239.544 82.3586 239.446 82.3557 239.374 82.3524L239.14 82.343L239.174 85.4628L236.816 85.4889L236.721 76.8555C237.175 76.7424 237.678 76.6509 238.23 76.5808C238.785 76.5066 239.313 76.4668 239.812 76.4612C241.192 76.446 242.229 76.6745 242.922 77.1468C243.619 77.6152 243.974 78.3513 243.985 79.3552C243.992 79.9712 243.849 80.4968 243.558 80.932C243.271 81.3672 242.853 81.7059 242.303 81.948L244.844 85.4001L242.222 85.4291ZM239.12 80.5851C239.481 80.6212 239.809 80.6375 240.105 80.6343C240.669 80.628 241.084 80.5274 241.349 80.3325C241.619 80.1335 241.752 79.818 241.747 79.386C241.742 78.954 241.603 78.6415 241.329 78.4486C241.054 78.2516 240.637 78.1562 240.077 78.1624C239.749 78.166 239.422 78.1997 239.094 78.2633L239.12 80.5851ZM251.092 85.3309L248.672 81.8595L247.934 81.8677L247.973 85.3654L245.567 85.3921L245.468 76.5126L247.874 76.486L247.911 79.7918L248.649 79.7836L250.808 76.4535L253.334 76.4256L250.538 80.7468L253.702 85.302L251.092 85.3309ZM259.922 85.2332L259.208 83.0689L255.824 83.1064L255.164 85.2858L252.83 85.3117L255.708 76.3993L259.206 76.3606L262.28 85.2071L259.922 85.2332ZM256.392 81.252L258.605 81.2275L257.457 77.742L256.392 81.252ZM265.583 83.2384L269.801 83.1917L269.822 85.1236L262.497 85.2047L262.482 83.9027L266.578 78.2111L262.486 78.2564L262.464 76.3245L269.664 76.2448L269.678 77.5467L265.583 83.2384ZM270.904 85.1116L270.806 76.2321L273.212 76.2055L273.31 85.085L270.904 85.1116Z" fill="#003366"/>
</svg>
